<svg version="1.1" id="Layer_1" xmlns="http://www.w3.org/2000/svg" xmlns:xlink="http://www.w3.org/1999/xlink" x="0px" y="0px"
	 width="100%" viewBox="0 0 200 200" enable-background="new 0 0 200 200" xml:space="preserve">
<path fill="#117461" opacity="1.000000" stroke="none" 
	d="
M128.000000,201.000000 
	C85.333336,201.000000 43.166672,201.000000 1.000006,201.000000 
	C1.000004,134.333344 1.000004,67.666679 1.000002,1.000015 
	C67.666656,1.000010 134.333313,1.000010 200.999969,1.000005 
	C200.999985,67.666649 200.999985,134.333298 201.000000,200.999969 
	C176.833328,201.000000 152.666672,201.000000 128.000000,201.000000 
M64.320297,106.499893 
	C64.320297,87.267105 64.320297,68.034309 64.320297,49.010593 
	C59.111698,49.010593 54.703934,49.010593 50.204632,49.010593 
	C50.204632,72.870583 50.089615,96.345589 50.314026,119.817352 
	C50.352962,123.889801 51.426891,128.079132 52.703999,131.992157 
	C60.374340,155.493820 82.949928,169.087723 108.818001,165.996628 
	C130.863571,163.362289 150.092743,143.578979 151.131165,120.321007 
	C152.177383,96.888466 151.475388,73.377800 151.516724,49.901329 
	C151.517212,49.629410 151.215012,49.356960 150.942978,48.896774 
	C146.618210,48.896774 142.199905,48.896774 137.262070,48.896774 
	C137.262070,50.947407 137.264755,52.731167 137.261658,54.514915 
	C137.224487,75.833542 137.516159,97.159431 137.047150,118.468567 
	C136.653183,136.368088 122.147743,150.715057 103.862320,152.329468 
	C86.000824,153.906464 68.902878,141.747070 65.382149,124.403618 
	C64.269554,118.922844 64.632576,113.142517 64.320297,106.499893 
M114.162796,144.796631 
	C126.732948,138.212433 132.861115,127.875664 132.740448,113.637115 
	C132.594955,96.472076 132.706955,79.304863 132.707443,62.138592 
	C132.707565,57.837189 132.707458,53.535789 132.707458,48.928181 
	C124.563210,48.928181 116.852890,48.928181 108.791565,48.928181 
	C108.791565,69.525658 108.796814,89.831619 108.784401,110.137573 
	C108.782974,112.467918 108.981758,114.853432 108.563271,117.116386 
	C107.813652,121.169922 105.204193,123.595627 101.000168,123.809334 
	C97.108513,124.007156 93.790199,120.948624 93.228737,116.791588 
	C93.029442,115.315987 93.132240,113.796822 93.131874,112.297531 
	C93.127151,92.964645 93.128738,73.631752 93.128723,54.298862 
	C93.128716,52.528652 93.128716,50.758446 93.128716,48.966614 
	C84.791565,48.966614 77.049797,48.966614 69.396301,48.966614 
	C69.235962,49.638809 69.092056,49.961109 69.091728,50.283558 
	C69.070122,71.616196 69.013405,92.948944 69.061401,114.281456 
	C69.116486,138.766006 90.528961,153.587784 114.162796,144.796631 
z"/>
<path fill="#EDF6F4" opacity="1.000000" stroke="none" 
	d="
M64.320290,106.999588 
	C64.632576,113.142517 64.269554,118.922844 65.382149,124.403618 
	C68.902878,141.747070 86.000824,153.906464 103.862320,152.329468 
	C122.147743,150.715057 136.653183,136.368088 137.047150,118.468567 
	C137.516159,97.159431 137.224487,75.833542 137.261658,54.514915 
	C137.264755,52.731167 137.262070,50.947407 137.262070,48.896774 
	C142.199905,48.896774 146.618210,48.896774 150.942978,48.896774 
	C151.215012,49.356960 151.517212,49.629410 151.516724,49.901329 
	C151.475388,73.377800 152.177383,96.888466 151.131165,120.321007 
	C150.092743,143.578979 130.863571,163.362289 108.818001,165.996628 
	C82.949928,169.087723 60.374340,155.493820 52.703999,131.992157 
	C51.426891,128.079132 50.352962,123.889801 50.314026,119.817352 
	C50.089615,96.345589 50.204632,72.870583 50.204632,49.010593 
	C54.703934,49.010593 59.111698,49.010593 64.320297,49.010593 
	C64.320297,68.034309 64.320297,87.267105 64.320290,106.999588 
M146.838943,55.079525 
	C145.495651,54.335278 144.152374,53.591030 142.038391,52.419777 
	C142.038391,55.775898 142.038956,57.593777 142.038284,59.411655 
	C142.031204,78.577271 142.197037,97.744904 141.974335,116.908012 
	C141.673935,142.755264 117.684280,161.778046 92.449280,156.427872 
	C73.616272,152.435028 60.213871,136.788605 59.862110,117.477684 
	C59.497932,97.485329 59.701576,77.481697 59.767014,57.483356 
	C59.777733,54.206543 59.237152,52.198757 55.122940,53.676682 
	C55.056076,54.599861 54.924397,55.572159 54.924267,56.544472 
	C54.921562,76.710007 54.743877,96.877869 54.991806,117.040466 
	C55.292210,141.471024 75.209915,161.298584 99.629929,161.882858 
	C125.531044,162.502563 146.466843,142.306396 146.804825,115.980423 
	C147.061539,95.984726 146.859070,75.983131 146.838943,55.079525 
z"/>
<path fill="#EBF4F2" opacity="1.000000" stroke="none" 
	d="
M113.803528,144.933655 
	C90.528961,153.587784 69.116486,138.766006 69.061401,114.281456 
	C69.013405,92.948944 69.070122,71.616196 69.091728,50.283558 
	C69.092056,49.961109 69.235962,49.638809 69.396301,48.966614 
	C77.049797,48.966614 84.791565,48.966614 93.128716,48.966614 
	C93.128716,50.758446 93.128716,52.528652 93.128723,54.298862 
	C93.128738,73.631752 93.127151,92.964645 93.131874,112.297531 
	C93.132240,113.796822 93.029442,115.315987 93.228737,116.791588 
	C93.790199,120.948624 97.108513,124.007156 101.000168,123.809334 
	C105.204193,123.595627 107.813652,121.169922 108.563271,117.116386 
	C108.981758,114.853432 108.782974,112.467918 108.784401,110.137573 
	C108.796814,89.831619 108.791565,69.525658 108.791565,48.928181 
	C116.852890,48.928181 124.563210,48.928181 132.707458,48.928181 
	C132.707458,53.535789 132.707565,57.837189 132.707443,62.138592 
	C132.706955,79.304863 132.594955,96.472076 132.740448,113.637115 
	C132.861115,127.875664 126.732948,138.212433 113.803528,144.933655 
M127.930695,57.733315 
	C127.822784,56.308880 127.714882,54.884449 127.615120,53.567482 
	C122.756760,53.567482 118.357498,53.567482 113.570862,53.567482 
	C113.570862,61.912254 113.573387,69.885246 113.570274,77.858231 
	C113.565399,90.344978 113.736633,102.835274 113.490601,115.317307 
	C113.306190,124.672546 105.947403,130.283981 97.430542,128.035278 
	C91.728912,126.529884 88.317116,121.539528 88.292526,114.218727 
	C88.230469,95.738434 88.277870,77.257782 88.258957,58.777298 
	C88.257164,57.022976 88.097160,55.268818 88.010872,53.520092 
	C83.062981,53.520092 78.660286,53.520092 74.152336,53.520092 
	C74.055756,54.652542 73.925987,55.466152 73.925804,56.279797 
	C73.921288,76.425140 73.914581,96.570526 73.964348,116.715767 
	C73.968834,118.527817 74.171509,120.382454 74.591530,122.143524 
	C77.689178,135.131393 90.077736,144.062927 103.154198,142.818634 
	C117.115562,141.490128 127.738113,130.247559 127.876068,116.129448 
	C128.063141,96.984787 127.927818,77.836983 127.930695,57.733315 
z"/>
<path fill="#1E7B69" opacity="1.000000" stroke="none" 
	d="
M146.849915,55.531845 
	C146.859070,75.983131 147.061539,95.984726 146.804825,115.980423 
	C146.466843,142.306396 125.531044,162.502563 99.629929,161.882858 
	C75.209915,161.298584 55.292210,141.471024 54.991806,117.040466 
	C54.743877,96.877869 54.921562,76.710007 54.924267,56.544472 
	C54.924397,55.572159 55.056076,54.599861 55.122940,53.676682 
	C59.237152,52.198757 59.777733,54.206543 59.767014,57.483356 
	C59.701576,77.481697 59.497932,97.485329 59.862110,117.477684 
	C60.213871,136.788605 73.616272,152.435028 92.449280,156.427872 
	C117.684280,161.778046 141.673935,142.755264 141.974335,116.908012 
	C142.197037,97.744904 142.031204,78.577271 142.038284,59.411655 
	C142.038956,57.593777 142.038391,55.775898 142.038391,52.419777 
	C144.152374,53.591030 145.495651,54.335278 146.849915,55.531845 
z"/>
<path fill="#1C7A68" opacity="1.000000" stroke="none" 
	d="
M127.930740,58.211918 
	C127.927818,77.836983 128.063141,96.984787 127.876068,116.129448 
	C127.738113,130.247559 117.115562,141.490128 103.154198,142.818634 
	C90.077736,144.062927 77.689178,135.131393 74.591530,122.143524 
	C74.171509,120.382454 73.968834,118.527817 73.964348,116.715767 
	C73.914581,96.570526 73.921288,76.425140 73.925804,56.279797 
	C73.925987,55.466152 74.055756,54.652542 74.152336,53.520092 
	C78.660286,53.520092 83.062981,53.520092 88.010872,53.520092 
	C88.097160,55.268818 88.257164,57.022976 88.258957,58.777298 
	C88.277870,77.257782 88.230469,95.738434 88.292526,114.218727 
	C88.317116,121.539528 91.728912,126.529884 97.430542,128.035278 
	C105.947403,130.283981 113.306190,124.672546 113.490601,115.317307 
	C113.736633,102.835274 113.565399,90.344978 113.570274,77.858231 
	C113.573387,69.885246 113.570862,61.912254 113.570862,53.567482 
	C118.357498,53.567482 122.756760,53.567482 127.615120,53.567482 
	C127.714882,54.884449 127.822784,56.308880 127.930740,58.211918 
M104.512184,133.124268 
	C92.076462,134.824844 83.425156,127.432404 83.266182,114.833656 
	C83.161118,106.507805 83.243073,98.179581 83.242516,89.852425 
	C83.241814,79.397438 83.242348,68.942451 83.242348,58.034092 
	C81.461601,58.145149 80.144661,58.227283 78.766777,58.313217 
	C78.766777,78.357002 78.534210,97.842445 78.852257,117.318901 
	C79.049339,129.387894 88.951775,138.257309 101.141800,138.165039 
	C113.160591,138.074051 122.792770,128.774826 123.005409,116.768402 
	C123.182327,106.778877 123.056412,96.783951 123.059990,86.791412 
	C123.063377,77.326630 123.060715,67.861855 123.060715,57.995686 
	C121.293999,58.125252 119.952751,58.223618 118.339935,58.341900 
	C118.339935,77.394333 118.384071,96.029465 118.321869,114.664253 
	C118.289330,124.414314 114.424934,129.723358 104.512184,133.124268 
z"/>
<path fill="#EFF6F4" opacity="1.000000" stroke="none" 
	d="
M104.898613,133.062546 
	C114.424934,129.723358 118.289330,124.414314 118.321869,114.664253 
	C118.384071,96.029465 118.339935,77.394333 118.339935,58.341900 
	C119.952751,58.223618 121.293999,58.125252 123.060715,57.995686 
	C123.060715,67.861855 123.063377,77.326630 123.059990,86.791412 
	C123.056412,96.783951 123.182327,106.778877 123.005409,116.768402 
	C122.792770,128.774826 113.160591,138.074051 101.141800,138.165039 
	C88.951775,138.257309 79.049339,129.387894 78.852257,117.318901 
	C78.534210,97.842445 78.766777,78.357002 78.766777,58.313217 
	C80.144661,58.227283 81.461601,58.145149 83.242348,58.034092 
	C83.242348,68.942451 83.241814,79.397438 83.242516,89.852425 
	C83.243073,98.179581 83.161118,106.507805 83.266182,114.833656 
	C83.425156,127.432404 92.076462,134.824844 104.898613,133.062546 
z"/>
</svg>